<svg viewBox="0 0 159 53" xmlns="http://www.w3.org/2000/svg" xmlns:xlink="http://www.w3.org/1999/xlink"><defs><path id="a" d="M.6627.9405h82.0824v21.8484H.6627z"/><path id="c" d="M0 53.6801h158.1328V.9995H0z"/></defs><g transform="translate(0 -1)" fill="none" fill-rule="evenodd"><g transform="translate(75.3876 6.88)"><mask id="b" fill="#fff"><use xlink:href="#a"/></mask><path d="M.6627 22.4163H9.842c6.031 0 8.149-3.0978 8.149-5.8212 0-3.384-3.0603-4.8456-5.5194-5.0166v-.0882c.2298-.0576.7144-.1998 1.1434-.3438 2.1162-.7164 3.4589-2.0628 3.4589-4.1004 0-2.178-1.6011-4.7016-7.318-4.7016H.6627v.0864l2.888 1.6344v16.6302l-2.888 1.6344v.0864Zm8.7503-1.2906c-1.0877 0-1.7446-.2862-1.9439-.4302v-8.2008h.9136c3.7748 0 5.3472 2.1222 5.3472 4.617 0 2.5236-1.9727 4.014-4.3169 4.014Zm-1.9439-9.8928V3.7215c.1993-.0576.7144-.144 1.3426-.144 2.6296 0 4.2325 1.4904 4.2325 4.0428 0 2.007-.9728 3.6126-4.2899 3.6126H7.4691Zm16.1653 11.556c.5151 0 .8598-.0576 1.3175-.1728l3.0873-1.8072h.0574v1.9512h.0862l5.7187-1.3482v-.0846l-2.3173-1.1196v-8.343c0-2.4948-1.3731-4.158-4.2594-4.158-1.4019 0-2.8037.3438-3.3745.5166-1.086.315-3.3745 1.0026-3.3745 2.8368 0 1.0332.8598 1.8936 1.9457 1.8936.6857 0 1.4-.2862 1.7447-.459L23.55 9.6273c.2872-.1134 1.287-.486 2.2311-.486 1.515 0 2.1737.8892 2.1737 2.2644v2.6946l-4.6615 1.1772c-2.3729.6012-3.344 1.9476-3.344 3.726 0 1.9782 1.542 3.7854 3.685 3.7854Zm1.8595-2.322c-1.2851 0-2.1144-.8892-2.1144-2.0646 0-1.0044.4846-1.7496 2.0875-2.2374l2.4878-.774v4.3884c-.63.3132-1.5167.6876-2.4609.6876Zm8.675 1.9494h8.2603v-.0864l-2.3136-1.4616v-9.6354c.8274-.6588 2.1431-1.0026 3.0873-1.0026 1.5723 0 2.3729.945 2.3729 2.5506v8.0874l-2.3155 1.4616v.0864h8.2621v-.0864l-2.3172-1.4616v-8.8884c0-2.61-1.5132-4.2732-4.2594-4.2732-.684 0-1.3157.1152-1.9153.2862l-3.0011 2.124h-.0574V7.7355h-.0862l-5.7169 1.377v.0846l2.3137 1.1196v10.5516l-2.3137 1.4616v.0864Zm17.8364 0h8.2639v-.0864l-2.3173-1.4616V.9405h-.0843l-5.8623 1.3752v.0864l2.3172 1.1178v17.3484l-2.3172 1.4616v.0864Zm11.5522 0h4.491l-6.2644-8.8884 5.69-5.3622v-.0864h-6.2895v.0864l2.5165 1.548-5.2322 5.103 5.0886 7.5996Zm8.9227.3726c.5133 0 .858-.0576 1.3157-.1728l3.0873-1.8072h.0592v1.9512h.0844l5.7187-1.3482v-.0846l-2.3173-1.1196v-8.343c0-2.4948-1.3713-4.158-4.2594-4.158-1.4 0-2.802.3438-3.3745.5166-1.086.315-3.3745 1.0026-3.3745 2.8368 0 1.0332.8598 1.8936 1.9457 1.8936.6857 0 1.4019-.2862 1.7447-.459l-.7162-2.8674c.2872-.1134 1.287-.486 2.2311-.486 1.515 0 2.1737.8892 2.1737 2.2644v2.6946l-4.6614 1.1772c-2.373.6012-3.344 1.9476-3.344 3.726 0 1.9782 1.5436 3.7854 3.6868 3.7854Zm1.8578-2.322c-1.2852 0-2.1145-.8892-2.1145-2.0646 0-1.0044.4846-1.7496 2.0875-2.2374l2.4878-.774v4.3884c-.63.3132-1.5167.6876-2.4608.6876Z" fill="#002C5A" mask="url(#b)"/></g><mask id="d" fill="#fff"><use xlink:href="#c"/></mask><path d="M0 53.68h67.542V.9996H0V53.68Zm24.0056-38.52c0 3.6415-4.0889 5.7925-7.3772 5.7925-.8006 0-1.2009-.0864-1.3157-.1152v-.8316c2.6314 0 4.604-1.3482 4.604-4.5594 0-3.2094-1.917-4.9014-4.7171-4.9014-.5726 0-1.174.0846-1.3731.144v16.8858l3.5737 1.6344v.0882H7.0218v-.0882l2.888-1.6344V10.9463l-2.888-1.6344v-.0864h8.9191c6.0346 0 8.0647 2.8098 8.0647 5.9346Zm18.6692 0c0 3.6415-4.0871 5.7925-7.3754 5.7925-.8024 0-1.2009-.0864-1.3157-.1152v-.8316c2.6296 0 4.604-1.3482 4.604-4.5594 0-3.2094-1.917-4.9014-4.719-4.9014-.5725 0-1.172.0846-1.373.144v16.8858l3.5737 1.6344v.0882H25.6928v-.0882l2.8863-1.6344V10.9463l-2.8863-1.6344v-.0864h8.9209c6.031 0 8.061 2.8098 8.061 5.9346Zm17.4702.3727h-.0862l-3.2022-4.932h-5.69v7.713h3.4894l2.4591-3.555h.0844v8.5158h-.0844l-2.4896-3.5838h-3.4588v7.884l3.5755 1.6344v.0882H44.362v-.0882l2.8881-1.6344V10.9463l-2.888-1.6344v-.0864H60.145v6.3072Z" fill="#002C5A" mask="url(#d)"/></g></svg>